<svg width="26" height="26" viewBox="0 0 26 26" fill="none" xmlns="http://www.w3.org/2000/svg">
<path d="M9 22.3333V14.3333C9 13.6261 8.71905 12.9478 8.21895 12.4477C7.71885 11.9476 7.04058 11.6667 6.33333 11.6667H3.66667C2.95942 11.6667 2.28115 11.9476 1.78105 12.4477C1.28095 12.9478 1 13.6261 1 14.3333V22.3333C1 23.0406 1.28095 23.7189 1.78105 24.219C2.28115 24.719 2.95942 25 3.66667 25H6.33333C7.04058 25 7.71885 24.719 8.21895 24.219C8.71905 23.7189 9 23.0406 9 22.3333ZM9 22.3333V9C9 8.29276 9.28095 7.61448 9.78105 7.11438C10.2811 6.61428 10.9594 6.33333 11.6667 6.33333H14.3333C15.0406 6.33333 15.7189 6.61428 16.219 7.11438C16.719 7.61448 17 8.29276 17 9V22.3333M9 22.3333C9 23.0406 9.28095 23.7189 9.78105 24.219C10.2811 24.719 10.9594 25 11.6667 25H14.3333C15.0406 25 15.7189 24.719 16.219 24.219C16.719 23.7189 17 23.0406 17 22.3333M17 22.3333V3.66667C17 2.95942 17.281 2.28115 17.781 1.78105C18.2811 1.28095 18.9594 1 19.6667 1H22.3333C23.0406 1 23.7189 1.28095 24.219 1.78105C24.719 2.28115 25 2.95942 25 3.66667V22.3333C25 23.0406 24.719 23.7189 24.219 24.219C23.7189 24.719 23.0406 25 22.3333 25H19.6667C18.9594 25 18.2811 24.719 17.781 24.219C17.281 23.7189 17 23.0406 17 22.3333Z" stroke="black" stroke-width="2" stroke-linecap="round" stroke-linejoin="round"/>
</svg>
