<svg width="26" height="30" viewBox="0 0 26 30" fill="none" xmlns="http://www.w3.org/2000/svg">
<path d="M7 7.5V19.5C7 20.2956 7.31607 21.0587 7.87868 21.6213C8.44129 22.1839 9.20435 22.5 10 22.5H19M7 7.5V4.5C7 3.70435 7.31607 2.94129 7.87868 2.37868C8.44129 1.81607 9.20435 1.5 10 1.5H16.879C17.2768 1.50008 17.6583 1.65818 17.9395 1.9395L24.5605 8.5605C24.8418 8.84174 24.9999 9.22321 25 9.621V19.5C25 20.2956 24.6839 21.0587 24.1213 21.6213C23.5587 22.1839 22.7956 22.5 22 22.5H19M7 7.5H4C3.20435 7.5 2.44129 7.81607 1.87868 8.37868C1.31607 8.94129 1 9.70435 1 10.5V25.5C1 26.2956 1.31607 27.0587 1.87868 27.6213C2.44129 28.1839 3.20435 28.5 4 28.5H16C16.7956 28.5 17.5587 28.1839 18.1213 27.6213C18.6839 27.0587 19 26.2956 19 25.5V22.5" stroke="url(#paint0_linear_1_187)" stroke-width="2" stroke-linecap="round" stroke-linejoin="round"/>
<defs>
<linearGradient id="paint0_linear_1_187" x1="2.87499" y1="1.5" x2="22.5625" y2="1.5" gradientUnits="userSpaceOnUse">
<stop stop-color="#3467AE"/>
<stop offset="1" stop-color="#0C4969"/>
</linearGradient>
</defs>
</svg>
