<svg width="30" height="30" viewBox="0 0 30 30" fill="none" xmlns="http://www.w3.org/2000/svg">
<path d="M10.5 25.5V16.5C10.5 15.7044 10.1839 14.9413 9.62132 14.3787C9.05871 13.8161 8.29565 13.5 7.5 13.5H4.5C3.70435 13.5 2.94129 13.8161 2.37868 14.3787C1.81607 14.9413 1.5 15.7044 1.5 16.5V25.5C1.5 26.2956 1.81607 27.0587 2.37868 27.6213C2.94129 28.1839 3.70435 28.5 4.5 28.5H7.5C8.29565 28.5 9.05871 28.1839 9.62132 27.6213C10.1839 27.0587 10.5 26.2956 10.5 25.5ZM10.5 25.5V10.5C10.5 9.70435 10.8161 8.94129 11.3787 8.37868C11.9413 7.81607 12.7044 7.5 13.5 7.5H16.5C17.2956 7.5 18.0587 7.81607 18.6213 8.37868C19.1839 8.94129 19.5 9.70435 19.5 10.5V25.5M10.5 25.5C10.5 26.2956 10.8161 27.0587 11.3787 27.6213C11.9413 28.1839 12.7044 28.5 13.5 28.5H16.5C17.2956 28.5 18.0587 28.1839 18.6213 27.6213C19.1839 27.0587 19.5 26.2956 19.5 25.5M19.5 25.5V4.5C19.5 3.70435 19.8161 2.94129 20.3787 2.37868C20.9413 1.81607 21.7044 1.5 22.5 1.5H25.5C26.2956 1.5 27.0587 1.81607 27.6213 2.37868C28.1839 2.94129 28.5 3.70435 28.5 4.5V25.5C28.5 26.2956 28.1839 27.0587 27.6213 27.6213C27.0587 28.1839 26.2956 28.5 25.5 28.5H22.5C21.7044 28.5 20.9413 28.1839 20.3787 27.6213C19.8161 27.0587 19.5 26.2956 19.5 25.5Z" stroke="url(#paint0_linear_1_191)" stroke-width="2" stroke-linecap="round" stroke-linejoin="round"/>
<defs>
<linearGradient id="paint0_linear_1_191" x1="3.60936" y1="1.5" x2="25.7578" y2="1.5" gradientUnits="userSpaceOnUse">
<stop stop-color="#3467AE"/>
<stop offset="1" stop-color="#0C4969"/>
</linearGradient>
</defs>
</svg>
