<svg width="26" height="27" viewBox="0 0 26 27" fill="none" xmlns="http://www.w3.org/2000/svg">
<path d="M25 16.1734C21.1873 17.715 17.1126 18.505 13 18.5C8.75603 18.5 4.7067 17.6734 1.00003 16.1734M18.3334 6.50002V3.83335C18.3334 3.12611 18.0524 2.44783 17.5523 1.94774C17.0522 1.44764 16.3739 1.16669 15.6667 1.16669H10.3334C9.62612 1.16669 8.94784 1.44764 8.44775 1.94774C7.94765 2.44783 7.6667 3.12611 7.6667 3.83335V6.50002M13 14.5H13.0134M3.6667 25.1667H22.3334C23.0406 25.1667 23.7189 24.8857 24.219 24.3856C24.7191 23.8855 25 23.2073 25 22.5V9.16669C25 8.45944 24.7191 7.78117 24.219 7.28107C23.7189 6.78097 23.0406 6.50002 22.3334 6.50002H3.6667C2.95945 6.50002 2.28118 6.78097 1.78108 7.28107C1.28098 7.78117 1.00003 8.45944 1.00003 9.16669V22.5C1.00003 23.2073 1.28098 23.8855 1.78108 24.3856C2.28118 24.8857 2.95945 25.1667 3.6667 25.1667Z" stroke="black" stroke-width="2" stroke-linecap="round" stroke-linejoin="round"/>
</svg>
