<svg width="10" height="12" viewBox="0 0 10 12" fill="none" xmlns="http://www.w3.org/2000/svg">
<path d="M7.66933 4.89066L3.40667 2.04799C3.20568 1.9139 2.97203 1.83693 2.73069 1.82533C2.48935 1.81373 2.24939 1.86792 2.03647 1.98212C1.82354 2.09632 1.64565 2.26623 1.5218 2.4737C1.39796 2.68116 1.33281 2.91838 1.33333 3.15999V8.84399C1.3333 9.08538 1.39879 9.32226 1.52283 9.52934C1.64687 9.73642 1.8248 9.90595 2.03764 10.0198C2.25048 10.1337 2.49025 10.1877 2.73135 10.176C2.97246 10.1642 3.20586 10.0873 3.40667 9.95333L7.66933 7.11066C7.85194 6.9889 8.00167 6.82394 8.10523 6.63042C8.20878 6.4369 8.26296 6.22081 8.26296 6.00133C8.26296 5.78184 8.20878 5.56575 8.10523 5.37224C8.00167 5.17872 7.85194 5.01242 7.66933 4.89066Z" stroke="url(#paint0_linear_1_139)" stroke-width="2" stroke-linecap="round" stroke-linejoin="round"/>
<defs>
<linearGradient id="paint0_linear_1_139" x1="1.8747" y1="1.82379" x2="7.55917" y2="1.82379" gradientUnits="userSpaceOnUse">
<stop stop-color="#3467AE"/>
<stop offset="1" stop-color="#0C4969"/>
</linearGradient>
</defs>
</svg>
